<svg width="18" height="19" viewBox="0 0 18 19" fill="none" xmlns="http://www.w3.org/2000/svg">
<path d="M8.92977 0.649536C3.99851 0.649536 0 4.64726 0 9.57892C0 14.5106 3.99812 18.5083 8.92977 18.5083C13.8618 18.5083 17.8595 14.5106 17.8595 9.57892C17.8595 4.64726 13.8618 0.649536 8.92977 0.649536ZM8.92977 3.31953C10.5615 3.31953 11.8837 4.64216 11.8837 6.27311C11.8837 7.90444 10.5615 9.22669 8.92977 9.22669C7.29883 9.22669 5.97659 7.90444 5.97659 6.27311C5.97659 4.64216 7.29883 3.31953 8.92977 3.31953ZM8.92781 16.1737C7.3004 16.1737 5.80988 15.581 4.66022 14.6C4.38016 14.3611 4.21856 14.0109 4.21856 13.6433C4.21856 11.9892 5.55728 10.6654 7.21176 10.6654H10.6486C12.3034 10.6654 13.6371 11.9892 13.6371 13.6433C13.6371 14.0112 13.4762 14.3607 13.1958 14.5996C12.0465 15.581 10.5556 16.1737 8.92781 16.1737Z" fill="#B3B3B3"/>
</svg>
