<svg width="20" height="20" viewBox="0 0 20 20" fill="none" xmlns="http://www.w3.org/2000/svg">
<g clip-path="url(#clip0_7_512)">
<path d="M17.3164 1.79077H15.6399V3.46724C15.6399 3.80254 15.3605 4.02607 15.0811 4.02607C14.8017 4.02607 14.5223 3.80254 14.5223 3.46724V1.79077H5.58112V3.46724C5.58112 3.80254 5.30171 4.02607 5.0223 4.02607C4.74288 4.02607 4.46347 3.80254 4.46347 3.46724V1.79077H2.787C1.94877 1.79077 1.33406 2.51724 1.33406 3.46724V5.47901H19.2164V3.46724C19.2164 2.51724 18.2105 1.79077 17.3164 1.79077ZM1.33406 6.65254V16.879C1.33406 17.8849 1.94877 18.5555 2.84288 18.5555H17.3723C18.2664 18.5555 19.2723 17.829 19.2723 16.879V6.65254H1.33406ZM6.30759 16.0408H4.96641C4.74288 16.0408 4.51935 15.8731 4.51935 15.5937V14.1967C4.51935 13.9731 4.687 13.7496 4.96641 13.7496H6.36347C6.587 13.7496 6.81053 13.9172 6.81053 14.1967V15.5937C6.75465 15.8731 6.587 16.0408 6.30759 16.0408ZM6.30759 11.0114H4.96641C4.74288 11.0114 4.51935 10.8437 4.51935 10.5643V9.16724C4.51935 8.94371 4.687 8.72018 4.96641 8.72018H6.36347C6.587 8.72018 6.81053 8.88783 6.81053 9.16724V10.5643C6.75465 10.8437 6.587 11.0114 6.30759 11.0114ZM10.7782 16.0408H9.38112C9.15759 16.0408 8.93406 15.8731 8.93406 15.5937V14.1967C8.93406 13.9731 9.10171 13.7496 9.38112 13.7496H10.7782C11.0017 13.7496 11.2252 13.9172 11.2252 14.1967V15.5937C11.2252 15.8731 11.0576 16.0408 10.7782 16.0408ZM10.7782 11.0114H9.38112C9.15759 11.0114 8.93406 10.8437 8.93406 10.5643V9.16724C8.93406 8.94371 9.10171 8.72018 9.38112 8.72018H10.7782C11.0017 8.72018 11.2252 8.88783 11.2252 9.16724V10.5643C11.2252 10.8437 11.0576 11.0114 10.7782 11.0114ZM15.2488 16.0408H13.8517C13.6282 16.0408 13.4046 15.8731 13.4046 15.5937V14.1967C13.4046 13.9731 13.5723 13.7496 13.8517 13.7496H15.2488C15.4723 13.7496 15.6958 13.9172 15.6958 14.1967V15.5937C15.6958 15.8731 15.5282 16.0408 15.2488 16.0408ZM15.2488 11.0114H13.8517C13.6282 11.0114 13.4046 10.8437 13.4046 10.5643V9.16724C13.4046 8.94371 13.5723 8.72018 13.8517 8.72018H15.2488C15.4723 8.72018 15.6958 8.88783 15.6958 9.16724V10.5643C15.6958 10.8437 15.5282 11.0114 15.2488 11.0114Z" fill="#B3B3B3"/>
</g>
<defs>
<clipPath id="clip0_7_512">
<rect width="19" height="19" fill="white" transform="translate(0.775238 0.673096)"/>
</clipPath>
</defs>
</svg>
