<svg width="18" height="18" viewBox="0 0 18 18" fill="none" xmlns="http://www.w3.org/2000/svg">
<path d="M17.8859 13.5789V16.1553C17.8869 16.3945 17.8373 16.6313 17.7403 16.8504C17.6433 17.0696 17.501 17.2663 17.3225 17.428C17.1441 17.5897 16.9334 17.7128 16.704 17.7894C16.4746 17.866 16.2316 17.8945 15.9904 17.873C13.3148 17.5858 10.7446 16.6828 8.48652 15.2364C6.38564 13.9179 4.60445 12.1586 3.26947 10.0836C1.79998 7.84313 0.885485 5.29229 0.600075 2.63772C0.578347 2.40024 0.606922 2.16088 0.683983 1.9349C0.761044 1.70891 0.884901 1.50126 1.04767 1.32514C1.21044 1.14903 1.40855 1.00832 1.62939 0.911971C1.85023 0.815623 2.08897 0.76575 2.3304 0.765525H4.93892C5.3609 0.761423 5.76999 0.909013 6.08994 1.18079C6.4099 1.45256 6.61888 1.82997 6.67794 2.24267C6.78804 3.06718 6.99222 3.87675 7.2866 4.65592C7.40358 4.96331 7.4289 5.29738 7.35955 5.61854C7.29021 5.9397 7.1291 6.2345 6.89532 6.468L5.79104 7.55869C7.02883 9.70875 8.83124 11.489 11.0081 12.7115L12.1124 11.6208C12.3488 11.3899 12.6472 11.2308 12.9724 11.1623C13.2976 11.0938 13.6358 11.1188 13.947 11.2344C14.7359 11.5251 15.5556 11.7268 16.3904 11.8355C16.8127 11.8944 17.1985 12.1045 17.4742 12.426C17.75 12.7474 17.8965 13.1577 17.8859 13.5789Z" fill="#B3B3B3"/>
</svg>
