<svg width="25" height="25" viewBox="0 0 25 25" fill="none" xmlns="http://www.w3.org/2000/svg">
<path d="M10.0058 20.3284V17.7721C10.0058 17.1243 10.5326 16.598 11.185 16.594H13.5807C14.2361 16.594 14.7674 17.1214 14.7674 17.7721V20.321C14.7674 20.8828 15.2239 21.3394 15.7898 21.3435H17.4243C18.1876 21.3454 18.9204 21.0458 19.4608 20.5106C20.0013 19.9754 20.3051 19.2487 20.3051 18.4908V11.2294C20.305 10.6173 20.0317 10.0366 19.5587 9.6438L14.0061 5.23511C13.0355 4.46398 11.6493 4.48889 10.7074 5.29439L5.27419 9.6438C4.77885 10.025 4.48279 10.6074 4.46816 11.2294V18.4834C4.46816 20.063 5.75794 21.3435 7.34895 21.3435H8.94608C9.21854 21.3455 9.48053 21.2394 9.67389 21.0488C9.86726 20.8582 9.976 20.5989 9.976 20.3284H10.0058Z" fill="url(#paint0_linear_2_1230)"/>
<defs>
<linearGradient id="paint0_linear_2_1230" x1="5.66361" y1="4.67311" x2="20.3548" y2="5.10227" gradientUnits="userSpaceOnUse">
<stop stop-color="#5FCD70"/>
<stop offset="1" stop-color="#0E826B"/>
</linearGradient>
</defs>
</svg>
