<svg width="18" height="22" viewBox="0 0 18 22" fill="none" xmlns="http://www.w3.org/2000/svg">
<path fill-rule="evenodd" clip-rule="evenodd" d="M9.23973 21.3298C9.23973 21.3298 17.8864 15.6363 17.8864 8.99381C17.8864 6.72879 16.9755 4.55653 15.3539 2.95491C13.7323 1.3533 11.533 0.453522 9.23973 0.453522C6.94648 0.453522 4.74715 1.3533 3.12558 2.95491C1.50401 4.55653 0.593018 6.72879 0.593018 8.99381C0.593018 15.6363 9.23973 21.3298 9.23973 21.3298ZM12.1221 8.04491C12.1221 9.61714 10.8317 10.8917 9.23986 10.8917C7.64804 10.8917 6.35762 9.61714 6.35762 8.04491C6.35762 6.47269 7.64804 5.19815 9.23986 5.19815C10.8317 5.19815 12.1221 6.47269 12.1221 8.04491Z" fill="#B3B3B3"/>
</svg>
