<svg width="19" height="17" viewBox="0 0 19 17" fill="none" xmlns="http://www.w3.org/2000/svg">
<path d="M18.5757 12.5181C17.9448 13.2413 17.0867 13.4974 16.1531 13.7079C16.1531 13.513 16.1661 13.3362 16.1531 13.1601C16.0996 12.5232 16.0686 11.8812 15.9686 11.2515C15.8119 10.2611 15.4125 9.38381 14.5957 8.75736C14.3331 8.55655 14.0415 8.39539 13.7764 8.22448C14.0202 8.17314 14.2925 8.1426 14.5415 8.05487C14.7383 7.98988 14.9106 7.84626 15.0944 7.74034C15.1422 7.71304 15.2009 7.6682 15.2454 7.67535C15.857 7.79428 16.4641 7.92945 17.0364 8.19523C17.7996 8.54745 18.2422 9.14987 18.3912 9.96608C18.4699 10.4002 18.4957 10.8434 18.5435 11.2827C18.5583 11.4185 18.5673 11.555 18.5783 11.6908L18.5757 12.5181Z" fill="#B3B3B3"/>
<path d="M9.43879 16.1078C8.26524 16.0896 7.09814 16.0142 5.95491 15.7179C5.23684 15.5313 4.54975 15.2734 3.96007 14.8022C3.91813 14.7684 3.87878 14.732 3.83749 14.6976C3.72894 14.6154 3.64321 14.5065 3.58852 14.3813C3.53384 14.2561 3.51204 14.1189 3.52523 13.9827C3.58006 13.1171 3.55748 12.2457 3.72523 11.3885C3.83361 10.8316 4.00974 10.302 4.3762 9.85489C4.81297 9.32071 5.39749 9.01853 6.03491 8.82162C6.54459 8.66371 7.06717 8.55259 7.58847 8.43171C7.62688 8.42652 7.66594 8.42919 7.7033 8.43958C7.74066 8.44996 7.77555 8.46785 7.80588 8.49215C8.30782 8.93015 8.90266 9.07312 9.54783 9.05232C10.1336 9.03348 10.6711 8.87101 11.1098 8.45251C11.1282 8.43899 11.149 8.42932 11.1712 8.42407C11.1934 8.41883 11.2164 8.41811 11.2388 8.42196C12.0053 8.56363 12.7614 8.73909 13.4736 9.07182C14.3911 9.50007 14.9059 10.2338 15.1182 11.2163C15.2717 11.9234 15.2988 12.6402 15.3272 13.3608C15.3356 13.5824 15.3272 13.806 15.3504 14.025C15.382 14.2914 15.2775 14.4799 15.0924 14.6566C14.7389 14.9784 14.33 15.2323 13.8859 15.4059C12.9414 15.7958 11.9465 15.9641 10.9369 16.0441C10.4375 16.0759 9.93815 16.085 9.43879 16.1078Z" fill="#B3B3B3"/>
<path d="M12.5989 4.10441C12.5731 5.34628 12.2434 6.45492 11.324 7.32248C10.1627 8.41878 8.49564 8.34989 7.40273 7.17821C6.78001 6.51442 6.40515 5.65362 6.34208 4.74256C6.27305 3.91595 6.30854 3.09064 6.55176 2.29132C6.86531 1.25156 7.58402 0.68684 8.6279 0.521778C9.24559 0.418892 9.87709 0.435655 10.4885 0.571167C11.5589 0.814211 12.1737 1.51085 12.3944 2.56361C12.5002 3.0666 12.5331 3.59103 12.5989 4.10441Z" fill="#B3B3B3"/>
<path d="M6.00398 1.31646C5.28978 3.27706 5.20591 5.19543 6.24011 7.08715C5.53043 7.5037 4.79365 7.54984 4.06268 7.14368C3.23429 6.68359 2.8001 5.93041 2.63107 5.02062C2.491 4.24532 2.53522 3.44762 2.7601 2.69285C2.99752 1.87208 3.56462 1.41589 4.38397 1.26967C4.92148 1.17361 5.47282 1.18954 6.00398 1.31646Z" fill="#B3B3B3"/>
<path d="M12.6383 7.0845C13.6706 5.19083 13.5854 3.27832 12.868 1.29692C13.1312 1.26963 13.4093 1.22739 13.6886 1.21569C14.159 1.19554 14.6261 1.25143 15.0622 1.44639C15.303 1.54562 15.5187 1.69794 15.6934 1.89215C15.8682 2.08636 15.9975 2.31753 16.0719 2.56868C16.3893 3.62339 16.459 4.69045 16.0306 5.73346C15.708 6.52693 15.1609 7.11634 14.3093 7.34964C13.7196 7.5082 13.1609 7.40228 12.6383 7.0845Z" fill="#B3B3B3"/>
<path d="M2.72658 13.7059C2.02593 13.5571 1.39625 13.3699 0.836897 12.9956L0.79109 12.967C0.454961 12.7441 0.237541 12.4809 0.297541 12.0241C0.389154 11.3313 0.387219 10.625 0.500122 9.93676C0.674961 8.88205 1.37883 8.28939 2.35238 7.99371C2.76077 7.86958 3.18077 7.78251 3.59626 7.68373C3.62053 7.67688 3.64595 7.67514 3.67092 7.67861C3.69589 7.68207 3.71989 7.69067 3.74142 7.70387C4.10916 8.05414 4.56207 8.16787 5.04852 8.19581C5.07175 8.19581 5.09497 8.20166 5.16465 8.21076C5.08271 8.25625 5.03562 8.28484 4.98787 8.30889C3.8911 8.84891 3.24594 9.73856 2.97303 10.9213C2.80787 11.6303 2.7511 12.351 2.72529 13.0755C2.72013 13.2777 2.72658 13.4804 2.72658 13.7059Z" fill="#B3B3B3"/>
</svg>
