<svg width="16" height="17" viewBox="0 0 16 17" fill="none" xmlns="http://www.w3.org/2000/svg">
<path d="M6.75727 2.89869C7.17233 1.70461 8.86104 1.70461 9.2761 2.89869L9.90646 4.71213C10.0896 5.23889 10.5811 5.59605 11.1387 5.60741L13.0582 5.64653C14.3221 5.67228 14.8439 7.27834 13.8365 8.04208L12.3066 9.20196C11.8623 9.53888 11.6745 10.1168 11.836 10.6506L12.3919 12.4882C12.758 13.6982 11.3918 14.6908 10.3541 13.9687L8.77826 12.8721C8.32051 12.5536 7.71287 12.5536 7.25511 12.8721L5.67924 13.9687C4.64158 14.6908 3.27538 13.6982 3.64145 12.4882L4.1974 10.6506C4.35889 10.1168 4.17112 9.53888 3.72672 9.20196L2.19683 8.04208C1.18946 7.27834 1.71129 5.67228 2.97519 5.64653L4.89467 5.60741C5.45223 5.59605 5.94382 5.23889 6.12692 4.71213L6.75727 2.89869Z" fill="#FFC554"/>
</svg>
